<?xml version="1.0" encoding="utf-8"?>
<!-- Generator: Adobe Illustrator 22.1.0, SVG Export Plug-In . SVG Version: 6.00 Build 0)  -->
<svg version="1.1" id="圖層_1" xmlns="http://www.w3.org/2000/svg" xmlns:xlink="http://www.w3.org/1999/xlink" x="0px" y="0px"
	 viewBox="0 0 243.2 44.2" style="enable-background:new 0 0 243.2 44.2;" xml:space="preserve">
<style type="text/css">
	.st0{fill:#3E3A39;}
	.st1{fill:#D93835;}
	.st2{fill:#FFFFFF;}
	.st3{fill:#0A4F98;}
</style>
<g>
	<g>
		<g>
			<path class="st0" d="M136.9,6h5.9v1H138v2.5h4.4v0.9H138v2.7h4.9v1h-5.9V6z"/>
			<path class="st0" d="M147.1,8.4c0.2,0.1,0.4,0.3,0.6,0.6V6h1v8.1h-0.9v-0.8c-0.2,0.4-0.5,0.6-0.8,0.8c-0.3,0.2-0.7,0.2-1.1,0.2
				c-0.7,0-1.2-0.3-1.7-0.8c-0.5-0.6-0.7-1.3-0.7-2.2c0-0.9,0.2-1.6,0.7-2.2c0.4-0.6,1.1-0.9,1.9-0.9C146.5,8.1,146.8,8.2,147.1,8.4
				z M144.9,12.8c0.3,0.4,0.7,0.6,1.3,0.6c0.5,0,0.8-0.2,1.1-0.6c0.3-0.4,0.4-1,0.4-1.7c0-0.7-0.2-1.3-0.5-1.7
				C147,9.1,146.6,9,146.2,9c-0.5,0-0.9,0.2-1.2,0.6c-0.3,0.4-0.5,0.9-0.5,1.7C144.5,11.8,144.7,12.4,144.9,12.8z"/>
			<path class="st0" d="M151,8.2v3.9c0,0.3,0,0.5,0.1,0.7c0.2,0.4,0.5,0.5,1,0.5c0.7,0,1.1-0.3,1.4-0.9c0.1-0.3,0.2-0.8,0.2-1.4V8.2
				h1v5.9h-0.9l0-0.9c-0.1,0.2-0.3,0.4-0.5,0.6c-0.4,0.3-0.8,0.5-1.3,0.5c-0.8,0-1.4-0.3-1.7-0.8c-0.2-0.3-0.2-0.7-0.2-1.2v-4H151z"
				/>
			<path class="st0" d="M160.1,8.5c0.4,0.3,0.7,0.9,0.8,1.7h-1c-0.1-0.4-0.2-0.7-0.4-0.9c-0.2-0.2-0.5-0.4-1-0.4
				c-0.6,0-1.1,0.3-1.4,0.9c-0.2,0.4-0.3,0.9-0.3,1.5c0,0.6,0.1,1.1,0.4,1.5c0.2,0.4,0.6,0.6,1.2,0.6c0.4,0,0.7-0.1,1-0.4
				c0.2-0.3,0.4-0.6,0.5-1h1c-0.1,0.8-0.4,1.4-0.8,1.7c-0.4,0.4-1,0.5-1.7,0.5c-0.8,0-1.4-0.3-1.8-0.8c-0.5-0.6-0.7-1.3-0.7-2.1
				c0-1,0.3-1.8,0.8-2.4c0.5-0.6,1.1-0.9,1.9-0.9C159.1,8,159.7,8.2,160.1,8.5z"/>
			<path class="st0" d="M165,10.5c0.2,0,0.4-0.1,0.5-0.3c0-0.1,0.1-0.2,0.1-0.4c0-0.3-0.1-0.6-0.4-0.7c-0.2-0.2-0.6-0.2-1-0.2
				c-0.5,0-0.9,0.1-1.1,0.4c-0.1,0.2-0.2,0.4-0.2,0.7h-0.9c0-0.7,0.3-1.2,0.7-1.5c0.5-0.3,1-0.4,1.6-0.4c0.7,0,1.3,0.1,1.7,0.4
				c0.4,0.3,0.6,0.7,0.6,1.2v3.4c0,0.1,0,0.2,0.1,0.2c0,0.1,0.1,0.1,0.3,0.1c0,0,0.1,0,0.1,0c0.1,0,0.1,0,0.2,0v0.7
				c-0.2,0-0.3,0.1-0.4,0.1c-0.1,0-0.2,0-0.3,0c-0.3,0-0.6-0.1-0.7-0.4c-0.1-0.1-0.1-0.3-0.2-0.5c-0.2,0.3-0.5,0.5-0.9,0.7
				c-0.4,0.2-0.8,0.3-1.2,0.3c-0.5,0-1-0.2-1.3-0.5c-0.3-0.3-0.5-0.7-0.5-1.2c0-0.5,0.2-1,0.5-1.3c0.3-0.3,0.8-0.5,1.3-0.6L165,10.5
				z M162.9,13.2c0.2,0.2,0.5,0.2,0.7,0.2c0.3,0,0.7-0.1,1-0.2c0.6-0.3,0.8-0.7,0.8-1.3v-0.8c-0.1,0.1-0.3,0.1-0.5,0.2
				c-0.2,0.1-0.4,0.1-0.6,0.1l-0.6,0.1c-0.4,0-0.6,0.1-0.8,0.2c-0.3,0.2-0.5,0.4-0.5,0.8C162.6,12.8,162.7,13,162.9,13.2z"/>
			<path class="st0" d="M168.1,6.6h1v1.6h0.9V9h-0.9v3.8c0,0.2,0.1,0.3,0.2,0.4c0.1,0,0.2,0.1,0.4,0.1c0,0,0.1,0,0.2,0
				c0.1,0,0.1,0,0.2,0v0.8c-0.1,0-0.2,0.1-0.4,0.1c-0.1,0-0.3,0-0.4,0c-0.5,0-0.8-0.1-0.9-0.4c-0.2-0.2-0.2-0.5-0.2-0.9V9h-0.8V8.2
				h0.8V6.6z"/>
			<path class="st0" d="M170.9,6h1v1.1h-1V6z M170.9,8.2h1v5.9h-1V8.2z"/>
			<path class="st0" d="M177.7,8.8c0.5,0.5,0.8,1.2,0.8,2.2c0,0.9-0.2,1.7-0.7,2.4c-0.5,0.6-1.2,0.9-2.1,0.9c-0.8,0-1.4-0.3-1.9-0.8
				c-0.5-0.5-0.7-1.3-0.7-2.2c0-1,0.2-1.8,0.7-2.4c0.5-0.6,1.2-0.9,2-0.9C176.5,8,177.1,8.3,177.7,8.8z M177,12.7
				c0.2-0.5,0.4-1,0.4-1.7c0-0.5-0.1-1-0.3-1.3c-0.3-0.5-0.8-0.8-1.4-0.8c-0.6,0-1,0.2-1.3,0.7c-0.3,0.5-0.4,1-0.4,1.7
				c0,0.6,0.1,1.1,0.4,1.6c0.3,0.4,0.7,0.6,1.3,0.6C176.4,13.4,176.8,13.2,177,12.7z"/>
			<path class="st0" d="M179.5,8.2h0.9V9c0.3-0.3,0.6-0.6,0.9-0.7c0.3-0.2,0.7-0.2,1-0.2c0.8,0,1.4,0.3,1.7,0.9
				c0.2,0.3,0.2,0.8,0.2,1.4v3.8h-1v-3.7c0-0.4-0.1-0.6-0.2-0.9c-0.2-0.4-0.5-0.5-1-0.5c-0.2,0-0.4,0-0.6,0.1
				c-0.3,0.1-0.5,0.2-0.7,0.5c-0.2,0.2-0.3,0.4-0.3,0.6c0,0.2-0.1,0.5-0.1,0.9v3.1h-1V8.2z"/>
			<path class="st0" d="M189.2,6h5.6v1h-4.5v2.5h4v1h-4v3.7h-1.1V6z"/>
			<path class="st0" d="M199.8,8.8c0.5,0.5,0.8,1.2,0.8,2.2c0,0.9-0.2,1.7-0.7,2.4c-0.5,0.6-1.2,0.9-2.1,0.9c-0.8,0-1.4-0.3-1.9-0.8
				c-0.5-0.5-0.7-1.3-0.7-2.2c0-1,0.2-1.8,0.7-2.4c0.5-0.6,1.2-0.9,2-0.9C198.7,8,199.3,8.3,199.8,8.8z M199.2,12.7
				c0.2-0.5,0.4-1,0.4-1.7c0-0.5-0.1-1-0.3-1.3c-0.3-0.5-0.8-0.8-1.4-0.8c-0.6,0-1,0.2-1.3,0.7c-0.3,0.5-0.4,1-0.4,1.7
				c0,0.6,0.1,1.1,0.4,1.6c0.3,0.4,0.7,0.6,1.3,0.6C198.5,13.4,199,13.2,199.2,12.7z"/>
			<path class="st0" d="M202.7,8.2v3.9c0,0.3,0,0.5,0.1,0.7c0.2,0.4,0.5,0.5,1,0.5c0.7,0,1.1-0.3,1.4-0.9c0.1-0.3,0.2-0.8,0.2-1.4
				V8.2h1v5.9h-0.9l0-0.9c-0.1,0.2-0.3,0.4-0.5,0.6c-0.4,0.3-0.8,0.5-1.3,0.5c-0.8,0-1.4-0.3-1.7-0.8c-0.2-0.3-0.2-0.7-0.2-1.2v-4
				H202.7z"/>
			<path class="st0" d="M207.8,8.2h0.9V9c0.3-0.3,0.6-0.6,0.9-0.7c0.3-0.2,0.7-0.2,1-0.2c0.8,0,1.4,0.3,1.7,0.9
				c0.2,0.3,0.2,0.8,0.2,1.4v3.8h-1v-3.7c0-0.4-0.1-0.6-0.2-0.9c-0.2-0.4-0.5-0.5-1-0.5c-0.2,0-0.4,0-0.6,0.1
				c-0.3,0.1-0.5,0.2-0.7,0.5c-0.2,0.2-0.3,0.4-0.3,0.6c0,0.2-0.1,0.5-0.1,0.9v3.1h-1V8.2z"/>
			<path class="st0" d="M217.3,8.4c0.2,0.1,0.4,0.3,0.6,0.6V6h1v8.1h-0.9v-0.8c-0.2,0.4-0.5,0.6-0.8,0.8c-0.3,0.2-0.7,0.2-1.1,0.2
				c-0.7,0-1.2-0.3-1.7-0.8c-0.5-0.6-0.7-1.3-0.7-2.2c0-0.9,0.2-1.6,0.7-2.2c0.4-0.6,1.1-0.9,1.9-0.9C216.6,8.1,217,8.2,217.3,8.4z
				 M215,12.8c0.3,0.4,0.7,0.6,1.3,0.6c0.5,0,0.8-0.2,1.1-0.6c0.3-0.4,0.4-1,0.4-1.7c0-0.7-0.2-1.3-0.5-1.7
				c-0.3-0.4-0.7-0.5-1.1-0.5c-0.5,0-0.9,0.2-1.2,0.6c-0.3,0.4-0.5,0.9-0.5,1.7C214.6,11.8,214.8,12.4,215,12.8z"/>
			<path class="st0" d="M223.3,10.5c0.2,0,0.4-0.1,0.5-0.3c0-0.1,0.1-0.2,0.1-0.4c0-0.3-0.1-0.6-0.4-0.7c-0.2-0.2-0.6-0.2-1-0.2
				c-0.5,0-0.9,0.1-1.1,0.4c-0.1,0.2-0.2,0.4-0.2,0.7h-0.9c0-0.7,0.3-1.2,0.7-1.5c0.5-0.3,1-0.4,1.6-0.4c0.7,0,1.3,0.1,1.7,0.4
				c0.4,0.3,0.6,0.7,0.6,1.2v3.4c0,0.1,0,0.2,0.1,0.2c0,0.1,0.1,0.1,0.3,0.1c0,0,0.1,0,0.1,0c0.1,0,0.1,0,0.2,0v0.7
				c-0.2,0-0.3,0.1-0.4,0.1c-0.1,0-0.2,0-0.3,0c-0.3,0-0.6-0.1-0.7-0.4c-0.1-0.1-0.1-0.3-0.2-0.5c-0.2,0.3-0.5,0.5-0.9,0.7
				c-0.4,0.2-0.8,0.3-1.2,0.3c-0.5,0-1-0.2-1.3-0.5c-0.3-0.3-0.5-0.7-0.5-1.2c0-0.5,0.2-1,0.5-1.3c0.3-0.3,0.8-0.5,1.3-0.6
				L223.3,10.5z M221.2,13.2c0.2,0.2,0.5,0.2,0.7,0.2c0.3,0,0.7-0.1,1-0.2c0.5-0.3,0.8-0.7,0.8-1.3v-0.8c-0.1,0.1-0.3,0.1-0.5,0.2
				c-0.2,0.1-0.4,0.1-0.6,0.1l-0.6,0.1c-0.4,0-0.6,0.1-0.8,0.2c-0.3,0.2-0.5,0.4-0.5,0.8C220.9,12.8,221,13,221.2,13.2z"/>
			<path class="st0" d="M226.4,6.6h1v1.6h0.9V9h-0.9v3.8c0,0.2,0.1,0.3,0.2,0.4c0.1,0,0.2,0.1,0.4,0.1c0,0,0.1,0,0.2,0
				c0.1,0,0.1,0,0.2,0v0.8c-0.1,0-0.2,0.1-0.4,0.1c-0.1,0-0.3,0-0.4,0c-0.5,0-0.8-0.1-0.9-0.4c-0.2-0.2-0.2-0.5-0.2-0.9V9h-0.8V8.2
				h0.8V6.6z"/>
			<path class="st0" d="M229.3,6h1v1.1h-1V6z M229.3,8.2h1v5.9h-1V8.2z"/>
			<path class="st0" d="M236,8.8c0.5,0.5,0.8,1.2,0.8,2.2c0,0.9-0.2,1.7-0.7,2.4c-0.5,0.6-1.2,0.9-2.1,0.9c-0.8,0-1.4-0.3-1.9-0.8
				c-0.5-0.5-0.7-1.3-0.7-2.2c0-1,0.2-1.8,0.7-2.4c0.5-0.6,1.2-0.9,2-0.9C234.8,8,235.4,8.3,236,8.8z M235.4,12.7
				c0.2-0.5,0.4-1,0.4-1.7c0-0.5-0.1-1-0.3-1.3c-0.3-0.5-0.8-0.8-1.4-0.8c-0.6,0-1,0.2-1.3,0.7c-0.3,0.5-0.4,1-0.4,1.7
				c0,0.6,0.1,1.1,0.4,1.6c0.3,0.4,0.7,0.6,1.3,0.6C234.7,13.4,235.1,13.2,235.4,12.7z"/>
			<path class="st0" d="M237.9,8.2h0.9V9c0.3-0.3,0.6-0.6,0.9-0.7c0.3-0.2,0.7-0.2,1-0.2c0.8,0,1.4,0.3,1.7,0.9
				c0.2,0.3,0.2,0.8,0.2,1.4v3.8h-1v-3.7c0-0.4-0.1-0.6-0.2-0.9c-0.2-0.4-0.5-0.5-1-0.5c-0.2,0-0.4,0-0.6,0.1
				c-0.3,0.1-0.5,0.2-0.7,0.5c-0.2,0.2-0.3,0.4-0.3,0.6c0,0.2-0.1,0.5-0.1,0.9v3.1h-1V8.2z"/>
		</g>
	</g>
	<g>
		<path class="st1" d="M15.5,4.9H0.7C0.7,4.9,0,4.7,0,6c0,1.2,0,37.6,0,37.6s-0.1,0.5,1.2,0.5c1.3,0,14.2,0,14.2,0s0.6,0.2,0.6-1.1
			c0-1.3,0-10.3,0-10.3h7.2v10.4c0,0-0.1,1,1.3,1c1.4,0,14.2,0,14.2,0s0.8,0.3,0.8-0.7c0-1,0-37.6,0-37.6s-0.3-0.6-1.3-0.6
			c-1,0-14.3,0-14.3,0S23.5,5,23.5,6.4c0,1.5,0,9.8,0,9.8h-7.4V5.7C16.1,5.7,16.2,4.9,15.5,4.9z"/>
		<path class="st2" d="M5.2,9.3c0,0-1-0.4-1,0.8c0,1.2,0,28.3,0,28.3S4,39.1,4.9,39.1c0.9,0,5.7,0,5.7,0h0.6c0,0,0.4,0.1,0.3-0.7
			c0-0.8,0-5.4,0-5.4s0.2-5,4.7-5c4.6,0,7.3,0,7.3,0s4.3,0.7,4.3,4.7c0,4.1,0,6.4,0,6.4s-0.3,0.3,0.9,0.3c1.3,0,6.1,0,6.1,0V25.1
			c0,0-0.5-4.6-6.4-4.6c-5.9,0-16.1,0-16.1,0s-0.6,0.1-0.6-1.2c0-1.2,0-9.4,0-9.4s0.2-0.6-1.1-0.7C9.4,9.2,5.2,9.3,5.2,9.3z"/>
		<path class="st1" d="M44.9,2.5c0,1.2-1,2.2-2.2,2.2c-1.2,0-2.2-1-2.2-2.2c0-1.2,1-2.2,2.2-2.2C43.9,0.3,44.9,1.3,44.9,2.5z
			 M42.7,0c-1.4,0-2.5,1.1-2.5,2.5c0,1.4,1.1,2.5,2.5,2.5c1.4,0,2.5-1.1,2.5-2.5C45.2,1.1,44.1,0,42.7,0z"/>
		<path class="st1" d="M41.7,4.1V0.9h1c0.4,0,0.7,0.1,0.9,0.2c0.2,0.2,0.3,0.4,0.3,0.7c0,0.2-0.1,0.4-0.3,0.6
			c-0.2,0.2-0.4,0.3-0.7,0.3L44,4.1h-0.4l-1-1.4H42v1.4H41.7z M42,1.2v1.2h0.5c0.3,0,0.6,0,0.7-0.2c0.2-0.1,0.3-0.3,0.3-0.5
			c0-0.2-0.1-0.4-0.3-0.5c-0.2-0.1-0.4-0.2-0.7-0.2H42z"/>
	</g>
	<g>
		<path class="st0" d="M50.7,22.3c1.1,0.8,1.9,1.5,2.5,2.2v-0.3h5.7v2.6h-1.5v9.6c0.5-0.2,1-0.4,1.5-0.6v2.6c-2,1.2-3.9,2.1-5.7,2.8
			l-0.6-2.6c-0.4,1.6-1,3.3-1.7,4.8l-3.1-1.1c1.4-2.7,2.3-5.5,2.6-8.5l2.8,0.5c-0.1,1.2-0.3,2.5-0.5,3.6c0.6-0.1,1.2-0.3,1.9-0.5
			V26.7h-1.4v-1.6l-1.8,2.1c-1-1.3-1.9-2.3-2.8-3.1L50.7,22.3z M50,27.7c1.4,1,2.5,1.8,3.3,2.5l-2.1,2.5c-1.2-1.3-2.3-2.4-3.3-3.2
			L50,27.7z M59.2,37.5l2,0.2c-0.2,2-0.6,3.8-1.2,5.3l-2.2-0.5C58.5,40.9,59,39.2,59.2,37.5z M62.7,21.6l3,0.5
			c-0.2,0.5-0.5,0.9-0.8,1.3h4.3v7.7h-6.9V32h7.9v1.8h-7.9v0.9h7.6v2.1c0,3.2-0.2,5.2-0.7,6c-0.5,0.6-1.3,1-2.6,1h-1.3l-0.5-2.4
			c0.9,0.1,1.5,0.1,1.8,0.1c0.2,0,0.4-0.1,0.6-0.4c0.1-0.1,0.1-0.5,0.2-1.1l-1.2,0.3c-0.1-0.9-0.4-1.9-0.8-3l1.2-0.3
			c0.4,0.8,0.6,1.6,0.8,2.3c0-0.1,0-0.3,0-0.5l0-2.1h-8V23.4H62C62.3,22.8,62.6,22.2,62.7,21.6z M63.1,37.7c0.2,1.3,0.3,2.9,0.5,4.7
			l-2,0.3c0-1.5-0.1-3.2-0.2-4.9L63.1,37.7z M66.7,25.3h-4.3v1.1h4.3V25.3z M66.7,28h-4.3v1.1h4.3V28z M64.9,37.5
			c0.3,1,0.6,2.2,0.8,3.6l-1.8,0.2c0-1.1-0.2-2.4-0.5-3.7L64.9,37.5z"/>
		<path class="st0" d="M78.8,27.5c1.5,1,2.8,2,4.1,3.1L80.6,33c-1.1-1.2-2.3-2.4-3.8-3.5L78.8,27.5z M80.1,33.7l2.3,0.8v-1.9h1.9
			c0.1-1.1,0.2-2.1,0.2-3.2c-0.3,0.3-0.5,0.5-0.8,0.8L82,27.8c1.9-1.5,3.3-3.5,4.3-6.1l3,0.5c-0.2,0.4-0.3,0.8-0.5,1.2h9.8v2.5H87.4
			c-0.3,0.5-0.6,0.9-0.9,1.3h11.3c-0.2,3-0.4,4.8-0.4,5.4h1.8V35h-2c-0.1,1.1-0.2,2.1-0.3,3h1.9v2.4h-2.2c-0.3,1.5-0.5,2.5-0.8,2.8
			c-0.5,0.5-1.6,0.8-3.3,0.8h-2.2l-0.8-2.8c1.8,0.1,2.8,0.2,3.1,0.2c0.3,0,0.6-0.1,0.7-0.3c0.1-0.1,0.2-0.3,0.2-0.7H83.3
			c0.3-1.8,0.5-3.6,0.7-5.3h-1.2c-0.6,3-1.5,5.9-2.8,8.7L77,42C78.5,39.1,79.5,36.4,80.1,33.7z M79.6,22c1.6,0.9,3,1.8,4.4,2.9
			l-2.2,2.4c-1.2-1.1-2.5-2.2-4.1-3.2L79.6,22z M90.7,38c-0.8-0.6-1.6-1.2-2.4-1.6l1.5-1.3h-2.7c-0.1,1-0.2,2-0.4,3H90.7z
			 M87.3,32.7h3.9c-0.9-0.7-1.8-1.3-2.6-1.7l1.5-1.3h-2.6C87.4,30.7,87.4,31.7,87.3,32.7z M93.8,38c0.1-0.8,0.2-1.8,0.3-3h-3.4
			c1.1,0.5,1.9,0.9,2.5,1.3L91.9,38H93.8z M91.8,32.7h2.5c0.1-0.9,0.1-1.9,0.2-3h-3.7c1.1,0.5,1.9,0.9,2.5,1.2L91.8,32.7z"/>
		<path class="st0" d="M120,21.8l3,0.5c-0.2,1.1-0.4,2.1-0.7,3h5.9V28h-1c-0.3,4.5-1,7.8-2.4,10.1c0.9,1,2.1,1.9,3.6,2.8l-1.9,2.9
			c-1.4-1.1-2.6-2.3-3.6-3.4c-1.1,1.1-2.6,2.3-4.5,3.4l-2.1-2.7c2.1-0.9,3.7-1.9,4.8-3.2c-0.8-1.4-1.3-3.1-1.6-4.9
			c-0.3,0.7-0.7,1.3-1,1.9l-1.7-2.6c0.2-0.5,0.5-0.9,0.7-1.4h-2.8c-0.4,0.5-0.8,0.9-1.2,1.3c0,0,0,0,0,0h3.1v2.1
			c-0.6,0.8-1.2,1.6-2,2.2c1.3-0.2,2.6-0.4,4-0.6v2.5c-1.3,0.2-2.6,0.4-4,0.6v2.9c-0.1,1.1-0.7,1.7-2,1.7h-3l-0.4-2.6
			c1.2,0.1,2,0.1,2.2,0.1c0.3,0,0.5-0.2,0.5-0.5v-1.3c-1.6,0.2-3.4,0.4-5.1,0.6l-0.5-2.8c1.9-0.1,3.8-0.3,5.6-0.5v-0.2
			c0.6-0.6,1.1-1.2,1.5-1.8h-3c-1.1,0.7-2.2,1.3-3.4,1.9l-1-2.7c2.1-0.9,3.8-1.9,5.2-3.1h-4.8v-2.6h3.9v-2h-3.3v-2.5h3.3v-2.1h3v2.1
			h3.4v1l1.7,0.7c-0.5,1-1,1.9-1.6,2.8h1.2v1.8C118.8,27.8,119.5,25,120,21.8z M113.6,28.3c0.5-0.6,0.9-1.3,1.3-2h-1.7v2H113.6z
			 M121.3,28.9c0.3,2.6,0.9,4.8,1.7,6.4c0.7-1.7,1.2-4.2,1.4-7.3h-2.8C121.4,28.3,121.4,28.7,121.3,28.9z"/>
		<path class="st0" d="M147.5,21.7c0.2,0.5,0.3,1.1,0.5,1.7h8.8V26h-4.1c1.8,1,3.2,1.9,4.2,2.7l-1.8,2.2c-0.6-0.5-1.2-1-1.8-1.4
			c-4.5,0.5-10.1,0.8-16.7,0.8l-0.6-2.9c1.4,0.1,2.5,0.1,3.3,0.1c0.6-0.5,1.2-1,1.6-1.5h-5.5v-2.6h9.1c-0.2-0.5-0.4-1-0.6-1.4
			L147.5,21.7z M139.1,31h15.6v10.8c0,1.4-0.9,2.1-2.6,2.1H148l-0.5-2.7c2,0.1,3.2,0.1,3.5,0.1c0.4,0,0.6-0.2,0.6-0.6v-0.9h-10.9v4
			h-3.1V31H139.1z M140.7,34.5h10.9v-1.1h-10.9V34.5z M140.7,37.7h10.9v-1.1h-10.9V37.7z M150.2,27.3c-0.4-0.2-0.7-0.4-1.1-0.6
			l0.7-0.7h-5.4c-0.4,0.5-0.8,1-1.4,1.5C145.7,27.5,148,27.5,150.2,27.3z"/>
		<path class="st0" d="M164.5,23.1h2.7v-1.2h3.1v1.2h8.3v-1.2h3.1v1.2h2.8v2.5h-2.8v6.7h3.5v2.6h-4.6c1.4,1,3.2,1.7,5.2,2.3
			l-1.7,2.7c-1-0.3-2-0.8-3.1-1.6v1.2h-4.9V41h8.4v2.5h-20V41h8.3v-1.6H168v-1c-1,0.6-2,1.1-3,1.4l-1.5-2.7c1.7-0.4,3.3-1.1,4.8-2.2
			h-4.3v-2.6h3.3v-6.7h-2.7V23.1z M169.7,37.1h3.2v-1.4h3.2v1.4h3.5c-0.9-0.7-1.7-1.5-2.4-2.3H172C171.3,35.7,170.5,36.5,169.7,37.1
			z M170.3,26.6h8.3v-1h-8.3V26.6z M170.3,29.5h8.3v-1h-8.3V29.5z M170.3,32.3h8.3v-1h-8.3V32.3z"/>
		<path class="st0" d="M201.8,22h2.4c2.6,2,5.9,3.6,9.9,4.7l-1.3,3.1c-1.1-0.4-2.2-0.8-3.2-1.3v2h-5v2.3h7.9v2.7h-7.9v4.9h1.7
			c0.7-1.1,1.3-2.5,1.8-4.1l3,0.8c-0.4,1.3-0.9,2.4-1.4,3.3h3.8v2.7h-21.1v-2.7h4.1c-0.5-1.1-1-2.2-1.7-3.3l3.1-0.7
			c0.7,1.1,1.4,2.5,1.8,4h1.6v-4.9h-7.9v-2.7h7.9v-2.3h-4.9v-2c-1,0.5-2.1,0.9-3.2,1.3l-1.3-3.1C195.8,25.6,199.1,24,201.8,22z
			 M197.7,27.9h10.5c-1.9-0.9-3.6-2-5.3-3.2C201.4,25.8,199.6,26.9,197.7,27.9z"/>
		<path class="st0" d="M232.1,22h1.8c2.5,1.7,5.6,3.1,9.3,4.1l-1,2.9c-0.3-0.1-0.5-0.2-0.8-0.3v6.2h-18.6v-6.2
			c-0.3,0.1-0.5,0.2-0.8,0.3L221,26c3.7-1,6.8-2.3,9.4-4.1H232.1z M240.5,35.5v8.2h-3v-0.7h-10.7v0.7h-3v-8.2H240.5z M223.9,28.2
			h16.5c-1.4-0.5-2.6-1.1-3.8-1.6v0.9h-9.1v-0.8C226.4,27.2,225.2,27.7,223.9,28.2z M227.5,32.8c-0.3-0.8-0.6-1.5-1-2.1l1.5-0.5
			h-2.1v2.6H227.5z M226.8,38.4h10.7v-0.8h-10.7V38.4z M226.8,41.1h10.7v-0.9h-10.7V41.1z M230.7,32.8v-2.6h-2
			c0.6,0.7,1,1.3,1.4,1.9l-1.4,0.7H230.7z M229.9,25.5h4.7c-0.8-0.5-1.6-0.9-2.4-1.4C231.4,24.5,230.7,25,229.9,25.5z M236.1,32.8
			l-2-0.6c0.6-0.6,1-1.2,1.3-2h-1.9v2.6H236.1z M238.5,32.8v-2.6h-2.3l1.7,0.5c-0.2,0.7-0.5,1.4-1,2.1H238.5z"/>
	</g>
	<g>
		<path class="st3" d="M57.1,7.4c0,0,0.5,0.1,0.5-0.3V5.7c0,0,0-0.3-0.4-0.3c-0.4,0-7.1,0-7.1,0S48,5.5,48,8.2c0,2.7,0,5.7,0,5.7
			s-0.1,0.3,0.3,0.3c0.4,0,1.7,0,1.7,0s0.2,0.1,0.3-0.2v-2.2c0,0,0-0.7,0.8-0.7h5.6c0,0,0.4,0.2,0.4-0.3V9.6c0,0,0-0.3-0.5-0.3
			c-0.5,0-5.6,0-5.6,0s-0.6,0-0.6-0.7V7.8c0,0,0.1-0.4,0.8-0.4H57.1z"/>
		<path class="st3" d="M71.1,5.4H74c0,0,0.2-0.1,0.6,0.3c0.4,0.4,1.2,1.6,1.8,1.6c0.6,0,1.4-1.4,1.8-1.7c0.4-0.3,0.3-0.1,0.3-0.1h3
			c0,0,0.5,0,0.2,0.2c-0.3,0.3-3.1,3.4-3.3,3.8c-0.2,0.4,0,0.6,0.3,1c0.4,0.4,3.1,3.4,3.1,3.4s0.4,0.2-0.6,0.2c-1,0-2.9,0-2.9,0
			s-1.6-2.1-2.2-2.1c-0.6,0-1.6,1.7-2.1,2c0,0-0.1,0.1-0.4,0.1c-0.3,0-3,0-3,0s-0.3,0.2,0.1-0.4c0.5-0.5,3.5-3.5,3.5-4
			c-0.1-0.5-0.7-1.1-2-2.5C71,5.8,70.2,5.4,71.1,5.4z"/>
		<path class="st3" d="M92.5,5.5v1.6c0,0,0,0.2-0.5,0.2c-0.6,0-5.8,0-5.8,0s-0.8,0-0.8,1.3c0,1.3,0,2.9,0,2.9s0.1,0.6,1.2,0.6
			c1.2,0,5.7,0,5.7,0s0.3-0.1,0.3,0.5c0,0.6,0,1.3,0,1.3S92.6,14,92,14c-0.5,0-6.9,0-6.9,0s-2-0.1-2.1-2.2c-0.1-2,0-5,0-5
			s0.4-1.4,2.4-1.4c2,0,6.3,0,6.3,0S92.5,5.3,92.5,5.5z"/>
		<path class="st3" d="M106.9,5.4h8.6c0,0,2.2,0.2,2.2,2.9c0,2.7,0,5.5,0,5.5s0.1,0.3-0.7,0.3c-0.8,0-1.2,0-1.2,0s-0.4,0.1-0.4-0.2
			c0-0.4,0-5.8,0-5.8s-0.1-0.7-0.9-0.7c-0.8,0-4.8,0-4.8,0S109,7.4,109,8.2c0,0.8,0,5.6,0,5.6s0,0.3-0.2,0.3c-0.2,0-1.9,0-1.9,0
			s-0.2,0-0.2-0.2c0-0.2,0-8.2,0-8.2V5.4H106.9z"/>
		<path class="st3" d="M119.7,5.4h8.6c0,0,2.2,0.2,2.2,2.9c0,2.7,0,5.5,0,5.5s0.1,0.3-0.7,0.3c-0.8,0-1.2,0-1.2,0s-0.4,0.1-0.4-0.2
			c0-0.4,0-5.8,0-5.8s-0.1-0.7-0.9-0.7c-0.8,0-4.8,0-4.8,0s-0.6,0.1-0.6,0.9c0,0.8,0,5.6,0,5.6s0,0.3-0.2,0.3c-0.2,0-1.9,0-1.9,0
			s-0.2,0-0.2-0.2c0-0.2,0-8.2,0-8.2V5.4H119.7z"/>
		<path class="st3" d="M60.7,5.4h6.8c0,0,2.2,0.1,2.2,2.4c0,2.3,0,4.1,0,4.1s-0.4,1.9-2.2,2c-1.8,0.1-6.7,0-6.7,0s-2.2-0.3-2.2-2.1
			c0-1.8,0-4.1,0-4.1S58.6,5.7,60.7,5.4z M61,8.1v3.2c0,0-0.1,0.7,1.4,0.6c1.4,0,4.3,0,4.3,0s0.6-0.1,0.6-1c0-0.9,0-3.1,0-3.1
			s0-0.6-1-0.6c-1,0-4.3,0-4.3,0S61,7.3,61,8.1"/>
		<path class="st3" d="M96.2,5.4h6.8c0,0,2.2,0.1,2.2,2.4c0,2.3,0,4.1,0,4.1s-0.4,1.9-2.2,2c-1.8,0.1-6.7,0-6.7,0s-2.2-0.3-2.2-2.1
			c0-1.8,0-4.1,0-4.1S94.1,5.7,96.2,5.4z M96.5,8.1v3.2c0,0-0.1,0.7,1.4,0.6c1.4,0,4.3,0,4.3,0s0.6-0.1,0.6-1c0-0.9,0-3.1,0-3.1
			s0-0.6-1-0.6c-1,0-4.3,0-4.3,0S96.5,7.3,96.5,8.1"/>
		<path class="st3" d="M132.8,4.3c0,0.7-0.6,1.3-1.2,1.3c-0.7,0-1.3-0.6-1.3-1.3c0-0.7,0.6-1.2,1.3-1.2
			C132.2,3.1,132.8,3.6,132.8,4.3z M131.5,2.9c-0.8,0-1.4,0.6-1.4,1.4c0,0.8,0.6,1.4,1.4,1.4c0.8,0,1.4-0.6,1.4-1.4
			C133,3.5,132.3,2.9,131.5,2.9z"/>
		<path class="st3" d="M130.9,5.2V3.4h0.6c0.2,0,0.4,0,0.5,0.1c0.1,0.1,0.2,0.2,0.2,0.4c0,0.1,0,0.3-0.1,0.3
			c-0.1,0.1-0.2,0.1-0.4,0.2l0.6,0.8H132l-0.6-0.8h-0.3v0.8H130.9z M131.1,3.5v0.7h0.3c0.2,0,0.3,0,0.4-0.1c0.1-0.1,0.1-0.2,0.1-0.3
			c0-0.1,0-0.2-0.1-0.3c-0.1-0.1-0.2-0.1-0.4-0.1H131.1z"/>
	</g>
</g>
</svg>
