<?xml version="1.0" encoding="utf-8"?>
<!-- Generator: Adobe Illustrator 22.1.0, SVG Export Plug-In . SVG Version: 6.00 Build 0)  -->
<svg version="1.1" id="圖層_1" xmlns="http://www.w3.org/2000/svg" xmlns:xlink="http://www.w3.org/1999/xlink" x="0px" y="0px"
	 viewBox="0 0 834.2 264.7" style="enable-background:new 0 0 834.2 264.7;" xml:space="preserve">
<style type="text/css">
	.st0{fill:#FFFFFF;}
</style>
<g>
	<g>
		<path class="st0" d="M574.6,192.5h103.2V63.1h-20.4v-0.2c3.6-5.3,7.2-10.6,10.8-15.8V19.7h-41.5c2.6-5.8,5.1-11.5,7.7-17.3
			c-12.3-0.8-24.6-1.6-37-2.4c-6,18.7-16.6,36.1-28.6,49.2c-2.5,2.7-4.3,5.9-7.2,8.2c4.3,7,8.6,13.9,13,20.9V192.5z M614.6,162.2
			h-11.8v-18.5h11.8V162.2z M614.6,114.2h-11.8V93.6h11.8V114.2z M638.6,93.6h12v20.6h-12V93.6z M650.6,143.8V162
			c-3.9,0.1-7.8,0.2-11.8,0.2c-0.1-6.2-0.2-12.3-0.2-18.5h12V143.8z M610.3,48h21.6v0.2c-3,4.7-5.9,9.4-8.9,14.2
			c-3.3,1.9-17.1,0.8-22.3,0.7C604,58.6,608.4,53.7,610.3,48z M810.5,47c5.9-3.9,18.5-12.9,18.5-21.8h-54.2v-24h-41.5v24H680V61
			c12.8,0.1,25.6,0.2,38.4,0.2C756.6,61.2,787.4,62.4,810.5,47z M145.7,46.8c2.5-2,5-4,7.4-6h20.2V41c-4.8,2.3-9.6,4.6-14.4,7
			c-0.1,0.2-0.2,0.3-0.2,0.5c3.7,4.1,7.4,8.2,11,12.2c0.5,0.5,1,1,1.4,1.4c-3,1-5.9,2.1-8.9,3.1c-2.5-1-9.4-11-11-13.7
			c-7.9,3.5-15.8,7-23.8,10.6c1.5,1.9,3,3.8,4.6,5.8c1,0.9,1.9,1.8,2.9,2.6v0.2c-7.2,2.6-16.6,3.9-25.4,4.3v0.2
			c3.3,6,8.9,12.9,10.3,20.2h-11.5v27.8h25.2c-5.2,2.9-10.4,5.8-15.6,8.6c4.5,5.8,9,11.5,13.4,17.3c2.2,2.9,5.4,5.6,6.7,9.4
			c7-4.5,14.1-9,21.1-13.4c0.8-0.5,6.2-3,5.8-4.1c-1.8-5-13.2-13.2-16.8-17.8h50.2c0.1,15.3-16.5,12-31.2,11.8
			c2.2,8.6,4.3,17.1,6.5,25.7c39.1,0.2,62.6,3.3,62.2-37.4h24.7V95.5H236c-0.1-5.8-0.2-11.5-0.2-17.3H204V78
			c13.4-3,28.6-16.8,38.2-24.5c3.2-3.1,6.4-6.2,9.6-9.4V13.9h-69.4c2.4-3.2,4.8-6.4,7.2-9.6c-12.6-0.7-25.1-1.4-37.7-2.2
			c-1.7,4.5-7,8.5-10.6,11.3c-10,7.8-24.1,18-37.4,21.8c3.6,8.9,10.4,16.5,12.7,26.9C126,60.1,138.3,51.8,145.7,46.8z M212.9,40.8
			c-2.7,3.3-12.9,9.8-17.3,11.3c-0.9,0.4-9.8-9.3-11-11.3H212.9z M197.5,80.6h0.7v14.6c-18.6,0.1-37.1,0.2-55.7,0.2v-0.2
			c14-2,27.4-5.3,39.6-9.1C187.5,84.5,193.1,83.3,197.5,80.6z M55.7,111.6h10.8v53.5H103V3.4H66.5v34.1c-6.1,0.1-12.2,0.2-18.2,0.2
			V10.8H14.9v64.3h33.4v-7.4h18.2v13.7c-21.1,0.1-42.2,0.2-63.4,0.2v30h21.6c-1.2,4.5-1.2,8.8-2.6,12.7
			c-3.2,8.6-11.3,18.5-19.4,22.1c-0.2,0.2-0.3,0.5-0.5,0.7c10.3,4.2,19.5,12.3,28.8,18C44.3,156,56.1,134.6,55.7,111.6z
			 M323.8,138.5h172.8v28.8H535v-55.7h-14c1.8-32.6,3.5-65.1,5.3-97.7h-78c-0.1,2.8-0.2,5.6-0.2,8.4h-0.2c-5.7-5-11.4-9.9-17-14.9
			c-1.7-1.8-18.2,12.7-21.4,15.1c-7.6-4.1-17.1-13.2-25.9-14.9c-4.1,4.9-8.2,9.8-12.2,14.6c-0.4,0.4-0.8,0.8-1.2,1.2
			c0.8,0.9,15.9,10.7,17.3,11.3c0.2,0.2,0.3,0.5,0.5,0.7c-6.6,3.5-13.3,7-19.9,10.6c1.7,6,8,10.5,11.5,15.1
			c-3.1,3.2-6.2,6.4-9.4,9.6c3.1,3.3,12,9.6,16.3,11.3c0.2,0.2,0.3,0.5,0.5,0.7c-6.3,3.2-12.6,6.4-19,9.6
			c4.2,5.6,7.5,13.6,12.5,18.5c0.1,0.2,0.2,0.5,0.2,0.7h-45.1V101c10.4-0.1,20.8-0.2,31.2-0.2V80.4h-32.2v-9.6h32.2V50.6h-33.1
			c-0.1-2.6-0.2-5.1-0.2-7.7c13-1,25.1-5.4,37.4-6.2c-3.1-10.1-6.2-20.2-9.4-30.2c-13.1,3.1-26.6,4.7-40.6,7.4
			c-9.4,1.4-18.7,2.9-28.1,4.3c1.4,31.1,2.7,62.2,4.1,93.4h-11.8v55.7h38.6v-28.8H323.8z M437.5,59.3c3.2-4,6.4-8,9.6-12l1-1
			c-2.7-3-12.7-9.2-16.8-10.6c1.6-3.4,13.1-11,16.8-13v17h37.7v10.6c-11.1,0.1-22.2,0.2-33.4,0.2v20.2h32.2v9.6h-31.9
			c-0.1,6.8-0.2,13.6-0.2,20.4h31c0.1,3.6,0.2,7.2,0.2,10.8h-47c4.6-5.8,9.1-11.5,13.7-17.3c-6.4-3.2-12.1-8.3-18.5-11
			c-0.2-0.2-0.3-0.5-0.5-0.7c3-2.2,5.3-5.3,8.2-7.4c2.9-2.2,6.4-3.6,8.6-6.5C444.6,65.5,441,62.4,437.5,59.3z M409.2,50.6
			c4.6,1.1,7.7,5.4,12,7.2c0.3,0.4,0.6,0.8,1,1.2c-3,3.9-8.1,6.6-12,9.6c-3.2-0.6-13.6-7.2-15.8-9.4c-0.2-0.1-0.3-0.2-0.5-0.2
			C399,56.2,404.1,53.4,409.2,50.6z M387.4,111.4c6.6-2.4,17.1-9.2,22.1-13.7c5.7,4.2,11.4,8.3,17,12.5c0.4,0.5,0.8,1,1.2,1.4h-40.3
			L387.4,111.4L387.4,111.4z M824.6,212.6c-7.1-13.1-14.2-26.2-21.4-39.4c-3.7-0.4-24.5,10.6-29.8,12.7v-18.2
			c14.2-0.1,28.3-0.2,42.5-0.2V73.9H692.2c-0.1,31.2-0.2,62.4-0.2,93.6h42.5v37.9c0,6,0.6,12.8-2.4,15.8c-3.7,3.8-12.9,3-20.4,2.9
			c6.5-13.1,13-26.2,19.4-39.4c-10.4-3.9-20.8-7.8-31.2-11.8c-6.8,13.2-13.6,26.4-20.4,39.6c-0.2,0.1-0.3,0.2-0.5,0.2
			c-1.4-5.3-2.9-10.6-4.3-15.8c-6.5,0.6-13,1.3-19.4,1.9c-0.1,0.2-0.2,0.3-0.2,0.5c3.6,14.7,7.2,29.4,10.8,44.2
			c5.8-1.4,11.7-2.9,17.5-4.3c4.3,3.3,8.6,6.6,13,9.8c3.8-6.6,7.7-13.3,11.5-19.9c0.2-0.1,0.3-0.2,0.5-0.2
			c2.2,9.6,4.3,19.2,6.5,28.8c24.1,0.1,49.3,1.4,56.4-15.6c3.2-7.5,2.4-19.3,2.4-30v-21.4h0.2c9,18.3,17.9,36.6,26.9,55
			c11.2-5.7,22.4-11.4,33.6-17C833.8,225,826.9,216.5,824.6,212.6z M730.1,132.7V109h47.8v23.8h-47.8V132.7z M485.3,174.2
			c2.1-4.5,0.5-20,0.5-26.2H334.6v29h84.2c-5.2,3.9-10.4,7.8-15.6,11.8H279.8V221h119c0.1,4.1,0.2,8-1.7,10.1
			c-5.3,6-41.1,4.1-51.8,2.6v0.2c3.1,7.6,6.7,21.6,7.2,30.7c9.8-0.3,19.5-0.6,29.3-1h30.7c25.2-4,30.5-13.4,30.2-42.7h96.5v-32.2
			h-78C469.3,184,477.3,179.1,485.3,174.2z M177.6,215.8c-5.8-1.7-10.4-5.1-15.4-7.2c-0.4-0.5-0.8-1-1.2-1.4
			c31.7-0.1,63.4-0.2,95-0.2v-32.2h-35.5c-1.4-3.9-2.7-7.8-4.1-11.8c-13.6,0.7-27.2,1.4-40.8,2.2c1.4,3.2,2.7,6.4,4.1,9.6h-26.6
			c0.4-5,0.8-9.9,1.2-14.9h-45.1v14.9H6.5V207h93.8v0.2c-11.9,13.2-55.4,15.5-78.5,19.4c-7.1,0.6-14.2,1.3-21.4,1.9H0
			c6.6,9.5,14.7,20.6,19,31.9c6.3,1,24.2-3.4,31-4.8c21.3-4.5,41.3-8.1,59.3-15.6c4.6-2.3,9.3-4.6,13.9-7c2.2-1.5,4.3-3,6.5-4.6
			l1.2-1.2c5.1,6.8,15,10.5,23.5,13.9c18,7.2,38.2,9.1,60.2,13.2c9,1.7,19.7,2.9,29.5,2.9c5-4.8,7-13.8,10.6-19.9
			c2.2-3.7,4.5-7.4,6.7-11c-14.2-1-28.3-2.1-42.5-3.1C204.6,220.7,190.3,219.5,177.6,215.8z M564.7,255.6c7.3,2.7,18.2,3.3,27.1,3.4
			c2.5-11.6,2.1-23.8,4.1-36.2c0.8-7.1,1.6-14.2,2.4-21.4c-9-0.7-18.1-1.4-27.1-2.2C570.8,218.7,565.8,237.1,564.7,255.6z
			 M628.8,200.2c1.3,8.9,2.6,17.8,3.8,26.6c0.9,7,1.8,14.1,2.6,21.1c7.6-0.6,15.2-1.3,22.8-1.9c-3.2-15.4-6.4-30.9-9.6-46.3
			C647,198.4,631.9,200,628.8,200.2z M601.7,201.4c0,18.6,0.7,36.1,2.2,53c8-0.6,16-1.3,24-1.9c-1.4-17.4-2.9-34.9-4.3-52.3
			C616.2,200.6,609,201,601.7,201.4z"/>
	</g>
</g>
</svg>
