<?xml version="1.0" encoding="utf-8"?>
<!-- Generator: Adobe Illustrator 22.1.0, SVG Export Plug-In . SVG Version: 6.00 Build 0)  -->
<svg version="1.1" id="圖層_1" xmlns="http://www.w3.org/2000/svg" xmlns:xlink="http://www.w3.org/1999/xlink" x="0px" y="0px"
	 viewBox="0 0 60.9 60.9" style="enable-background:new 0 0 60.9 60.9;" xml:space="preserve">
<style type="text/css">
	.st0{fill:#1C2A53;}
	.st1{fill:none;stroke:#1C2A53;stroke-miterlimit:10;}
</style>
<g>
	<path class="st0" d="M46,16.2H14.1c-1.4,0-2.5,1.1-2.5,2.5v25c0,1.4,1.1,2.5,2.5,2.5H46c1.4,0,2.5-1.1,2.5-2.5v-25
		C48.5,17.4,47.4,16.2,46,16.2z M14.1,17.8H46c0.5,0,1,0.4,1,1v4.8L32.1,35.2c-1.2,0.9-2.8,0.9-4,0L13.2,23.6v-4.8
		C13.2,18.2,13.6,17.8,14.1,17.8z M46,44.7H14.1c-0.5,0-1-0.4-1-1V25.5l14,10.9c0.9,0.7,1.9,1,2.9,1c1,0,2.1-0.3,2.9-1l14-10.9v18.2
		C47,44.2,46.5,44.7,46,44.7z"/>
	<path class="st1" d="M30.5,60.4L30.5,60.4c-16.5,0-30-13.5-30-30v0c0-16.5,13.5-30,30-30h0c16.5,0,30,13.5,30,30v0
		C60.4,46.9,46.9,60.4,30.5,60.4z"/>
</g>
</svg>
