<?xml version="1.0" encoding="utf-8"?>
<!-- Generator: Adobe Illustrator 22.1.0, SVG Export Plug-In . SVG Version: 6.00 Build 0)  -->
<svg version="1.1" id="圖層_1" xmlns="http://www.w3.org/2000/svg" xmlns:xlink="http://www.w3.org/1999/xlink" x="0px" y="0px"
	 viewBox="0 0 60.9 60.9" style="enable-background:new 0 0 60.9 60.9;" xml:space="preserve">
<style type="text/css">
	.st0{fill:#1C2A53;}
	.st1{fill:none;stroke:#1C2A53;stroke-miterlimit:10;}
</style>
<g>
	<path class="st0" d="M41.1,12.4h-22c-3.7,0-6.7,3-6.7,6.7v22c0,3.7,3,6.7,6.7,6.7h11.8V33.9h-4.6v-5.4h4.6v-4.6
		c0-1.5,0.8-6.1,6.1-6.1s5.4,0,5.4,0v4.6c0,0-2.2,0-3.8,0c-1.6,0-1.6,1-1.6,1.5v4.6h4.6v5.4H37v13.8h4.1c3.7,0,6.7-3,6.7-6.7v-22
		C47.7,15.4,44.7,12.4,41.1,12.4z"/>
	<path class="st1" d="M30.5,60.4L30.5,60.4c-16.5,0-30-13.5-30-30v0c0-16.5,13.5-30,30-30h0c16.5,0,30,13.5,30,30v0
		C60.4,46.9,46.9,60.4,30.5,60.4z"/>
</g>
</svg>
