<?xml version="1.0" encoding="utf-8"?>
<!-- Generator: Adobe Illustrator 22.1.0, SVG Export Plug-In . SVG Version: 6.00 Build 0)  -->
<svg version="1.1" id="圖層_1" xmlns="http://www.w3.org/2000/svg" xmlns:xlink="http://www.w3.org/1999/xlink" x="0px" y="0px"
	 viewBox="0 0 46 130" style="enable-background:new 0 0 46 130;" xml:space="preserve">
<style type="text/css">
	.st0{fill:#FFFFFF;}
</style>
<g>
	<path class="st0" d="M23,77C10.3,77,0,66.7,0,54V23C0,10.3,10.3,0,23,0c12.7,0,23,10.3,23,23v31C46,66.7,35.7,77,23,77z M23,2
		C11.4,2,2,11.4,2,23v31c0,11.6,9.4,21,21,21h0c11.6,0,21-9.4,21-21V23C44,11.4,34.6,2,23,2z"/>
	<path class="st0" d="M22.5,39L22.5,39c-1.9,0-3.5-1.6-3.5-3.5v-19c0-1.9,1.6-3.5,3.5-3.5h0c1.9,0,3.5,1.6,3.5,3.5v19
		C26,37.4,24.4,39,22.5,39z"/>
	<circle class="st0" cx="22" cy="97" r="3"/>
	<circle class="st0" cx="22" cy="112" r="3"/>
	<circle class="st0" cx="22" cy="127" r="3"/>
</g>
</svg>
